<?xml version="1.0" encoding="UTF-8"?>
<svg width="100px" height="100px" viewBox="0 0 100 100" version="1.1" xmlns="http://www.w3.org/2000/svg" xmlns:xlink="http://www.w3.org/1999/xlink">
    <!-- Generator: Sketch 54.1 (76490) - https://sketchapp.com -->
    <title>cosmos-ring</title>
    <desc>Created with Sketch.</desc>
    <g id="Page-1" stroke="none" stroke-width="1" fill="none" fill-rule="evenodd">
        <g id="popup" transform="translate(-617.000000, -515.000000)">
            <g transform="translate(450.000000, 226.000000)" id="icon">
                <g transform="translate(167.000000, 289.000000)">
                    <g id="cosmos-ring">
                        <path d="M98.869,49.747 C98.869,76.87575 76.8765,98.8695 49.7465,98.8695 C22.61775,98.8695 0.62525,76.87575 0.62525,49.747 C0.62525,22.61825 22.61775,0.6245 49.7465,0.6245 C76.8765,0.6245 98.869,22.61825 98.869,49.747 Z" id="Stroke-1" stroke="#000000"></path>
                        <path d="M67.051,89.77275 C73.19225,87.30025 78.6435,83.47775 83.0385,78.67275" id="Stroke-3" stroke="#000000"></path>
                        <path d="M33.232125,90.565375 C39.368375,93.050375 45.944625,94.086625 52.444625,93.680375" id="Stroke-5" stroke="#000000"></path>
                        <path d="M9.003,65.27775 C11.283,71.49275 14.93425,77.06025 19.6005,81.60275" id="Stroke-7" stroke="#000000"></path>
                        <path d="M9.932625,33.302 C7.248875,39.35325 5.998875,45.89325 6.192625,52.40325" id="Stroke-9" stroke="#000000"></path>
                        <path d="M33.817625,9.499 C27.726375,12.09025 22.348875,16.0165 18.047625,20.90775" id="Stroke-11" stroke="#000000"></path>
                        <path d="M67.54725,9.226375 C61.42975,6.697625 54.85975,5.615125 48.35725,5.976375" id="Stroke-13" stroke="#000000"></path>
                        <path d="M90.515,33.2065 C87.75375,27.19025 83.6775,21.92525 78.6675,17.764" id="Stroke-15" stroke="#000000"></path>
                        <path d="M90.636875,65.20825 C92.903125,58.98825 93.704375,52.37825 93.066875,45.897" id="Stroke-17" stroke="#000000"></path>
                        <path d="M88.494875,49.747 C88.494875,71.147 71.147375,88.4945 49.747375,88.4945 C28.347375,88.4945 10.998625,71.147 10.998625,49.747 C10.998625,28.347 28.347375,10.9995 49.747375,10.9995 C71.147375,10.9995 88.494875,28.347 88.494875,49.747 Z" id="Stroke-19" stroke="#000000"></path>
                        <path d="M42.8385,7.14475 C42.8385,8.80475 41.4935,10.14975 39.8335,10.14975 C38.1735,10.14975 36.8285,8.80475 36.8285,7.14475 C36.8285,5.48475 38.1735,4.13975 39.8335,4.13975 C41.4935,4.13975 42.8385,5.48475 42.8385,7.14475 Z" id="Stroke-21" stroke="#000000"></path>
                        <path d="M76.999875,13.154625 C76.999875,14.814625 75.654875,16.159625 73.994875,16.159625 C72.334875,16.159625 70.989875,14.814625 70.989875,13.154625 C70.989875,11.494625 72.334875,10.149625 73.994875,10.149625 C75.654875,10.149625 76.999875,11.494625 76.999875,13.154625 Z" id="Stroke-23" stroke="#000000"></path>
                        <path d="M94.97175,39.390125 C94.97175,41.050125 93.62675,42.395125 91.96675,42.395125 C90.30675,42.395125 88.96175,41.050125 88.96175,39.390125 C88.96175,37.730125 90.30675,36.385125 91.96675,36.385125 C93.62675,36.385125 94.97175,37.730125 94.97175,39.390125 Z" id="Stroke-25" stroke="#000000"></path>
                        <path d="M89.9685,72.931625 C89.9685,74.591625 88.6235,75.936625 86.9635,75.936625 C85.3035,75.936625 83.9585,74.591625 83.9585,72.931625 C83.9585,71.271625 85.3035,69.926625 86.9635,69.926625 C88.6235,69.926625 89.9685,71.271625 89.9685,72.931625 Z" id="Stroke-27" stroke="#000000"></path>
                        <path d="M63.08225,92.7455 C63.08225,94.4055 61.73725,95.7505 60.07725,95.7505 C58.41725,95.7505 57.07225,94.4055 57.07225,92.7455 C57.07225,91.0855 58.41725,89.7405 60.07725,89.7405 C61.73725,89.7405 63.08225,91.0855 63.08225,92.7455 Z" id="Stroke-29" stroke="#000000"></path>
                        <path d="M28.93775,86.54025 C28.93775,88.20025 27.59275,89.54525 25.93275,89.54525 C24.27275,89.54525 22.92775,88.20025 22.92775,86.54025 C22.92775,84.88025 24.27275,83.53525 25.93275,83.53525 C27.59275,83.53525 28.93775,84.88025 28.93775,86.54025 Z" id="Stroke-31" stroke="#000000"></path>
                        <path d="M9.942375,59.633875 C9.942375,61.293875 8.597375,62.638875 6.937375,62.638875 C5.277375,62.638875 3.932375,61.293875 3.932375,59.633875 C3.932375,57.973875 5.277375,56.628875 6.937375,56.628875 C8.597375,56.628875 9.942375,57.973875 9.942375,59.633875 Z" id="Stroke-33" stroke="#000000"></path>
                        <path d="M15.95225,26.105125 C15.95225,27.765125 14.60725,29.110125 12.94725,29.110125 C11.28725,29.110125 9.94225,27.765125 9.94225,26.105125 C9.94225,24.445125 11.28725,23.100125 12.94725,23.100125 C14.60725,23.100125 15.95225,24.445125 15.95225,26.105125 Z" id="Stroke-35" stroke="#000000"></path>
                        <path id="Line" d="M21.5,50 L77.8828125,50 L77.8828125,46.5 C77.8828125,46.2238576 78.1066701,46 78.3828125,46 C78.6589549,46 78.8828125,46.2238576 78.8828125,46.5 L78.8828125,54.5 C78.8828125,54.7761424 78.6589549,55 78.3828125,55 C78.1066701,55 77.8828125,54.7761424 77.8828125,54.5 L77.8828125,51 L21.5,51 L21.5,54.5 C21.5,54.7761424 21.2761424,55 21,55 C20.7238576,55 20.5,54.7761424 20.5,54.5 L20.5,46.5 C20.5,46.2238576 20.7238576,46 21,46 C21.2761424,46 21.5,46.2238576 21.5,46.5 L21.5,50 Z" fill="#C59214" fill-rule="nonzero"></path>
                    </g>
                </g>
            </g>
        </g>
    </g>
</svg>